<svg width="1536" height="1024" viewBox="0 0 1536 1024" fill="none" xmlns="http://www.w3.org/2000/svg">
  <rect width="1536" height="1024" rx="40" fill="#F6EFE4"/>
  <rect x="78" y="92" width="1380" height="840" rx="34" fill="#FFF9F1" stroke="#E2D6C3" stroke-width="4"/>
  <rect x="118" y="130" width="1300" height="74" rx="22" fill="#ECE4D8"/>
  <circle cx="165" cy="167" r="12" fill="#DE6A50"/>
  <circle cx="205" cy="167" r="12" fill="#E8B94E"/>
  <circle cx="245" cy="167" r="12" fill="#6FA375"/>
  <rect x="315" y="147" width="262" height="40" rx="14" fill="#FFFFFF"/>
  <rect x="612" y="147" width="184" height="40" rx="14" fill="#FFFFFF"/>
  <rect x="120" y="246" width="1296" height="612" rx="26" fill="#FBF7EF" stroke="#E9DECF" stroke-width="3"/>

  <rect x="1098" y="94" width="250" height="58" rx="18" fill="#FFFFFF" stroke="#D8CCBA" stroke-width="3"/>
  <path d="M1144 109C1144 102.373 1149.37 97 1156 97H1192C1198.63 97 1204 102.373 1204 109V129C1204 135.627 1198.63 141 1192 141H1156C1149.37 141 1144 135.627 1144 129V109Z" fill="#103EB5"/>
  <rect x="1154" y="102" width="12" height="24" rx="6" fill="#F5F8FF"/>
  <rect x="1172" y="102" width="12" height="36" rx="6" fill="#F5F8FF"/>
  <rect x="1200" y="109" width="112" height="12" rx="6" fill="#DCE7FF"/>
  <rect x="1200" y="127" width="78" height="10" rx="5" fill="#E9E0D3"/>

  <path d="M1032 208H1370C1391.54 208 1409 225.461 1409 247V622C1409 643.539 1391.54 661 1370 661H1032C1010.46 661 993 643.539 993 622V247C993 225.461 1010.46 208 1032 208Z" fill="#FFFFFF" stroke="#D8CCBA" stroke-width="4"/>
  <rect x="1019" y="238" width="364" height="52" rx="16" fill="#F3ECDF"/>
  <rect x="1051" y="317" width="54" height="54" rx="16" fill="#103EB5"/>
  <rect x="1119" y="329" width="190" height="18" rx="9" fill="#2A241F"/>
  <rect x="1119" y="356" width="122" height="14" rx="7" fill="#B7AA95"/>
  <rect x="1051" y="401" width="290" height="14" rx="7" fill="#E8DFD3"/>
  <rect x="1051" y="432" width="260" height="14" rx="7" fill="#E8DFD3"/>
  <rect x="1051" y="463" width="220" height="14" rx="7" fill="#E8DFD3"/>
  <rect x="1051" y="534" width="290" height="82" rx="22" fill="#F8F3EA" stroke="#E3D7C7" stroke-width="3"/>
  <rect x="1080" y="564" width="94" height="22" rx="11" fill="#DCE7FF"/>
  <rect x="1190" y="564" width="122" height="22" rx="11" fill="#E8DFD3"/>

  <path d="M632 516C632 459.667 677.667 414 734 414H784C840.333 414 886 459.667 886 516V542C886 598.333 840.333 644 784 644H734C677.667 644 632 598.333 632 542V516Z" fill="#103EB5"/>
  <rect x="718" y="346" width="84" height="218" rx="42" fill="#F6F9FF"/>
  <rect x="746" y="384" width="28" height="108" rx="14" fill="#103EB5"/>
  <path d="M692 595C692 559.654 720.654 531 756 531H764C799.346 531 828 559.654 828 595V621C828 656.346 799.346 685 764 685H756C720.654 685 692 656.346 692 621V595Z" fill="#F6F9FF"/>
  <rect x="742" y="684" width="36" height="86" rx="18" fill="#103EB5"/>
  <rect x="666" y="770" width="188" height="36" rx="18" fill="#103EB5"/>

  <circle cx="760" cy="518" r="142" stroke="#7C9BFF" stroke-width="26" stroke-linecap="round" stroke-dasharray="3 34"/>

  <circle cx="1193" cy="345" r="38" fill="#FFF9F1" stroke="#E2D7C8" stroke-width="4"/>
  <path d="M1177 337L1187 347L1209 325" stroke="#103EB5" stroke-width="10" stroke-linecap="round" stroke-linejoin="round"/>

  <circle cx="931" cy="505" r="48" fill="#DE6A50"/>
  <path d="M931 481V529" stroke="#FFF9F1" stroke-width="10" stroke-linecap="round"/>
  <path d="M907 505H955" stroke="#FFF9F1" stroke-width="10" stroke-linecap="round"/>

  <circle cx="1042" cy="180" r="38" fill="#103EB5"/>
  <text x="1042" y="194" text-anchor="middle" font-family="Arial, Helvetica, sans-serif" font-size="34" font-weight="700" fill="#FFF9F1">1</text>
  <circle cx="1388" cy="179" r="38" fill="#DE6A50"/>
  <text x="1388" y="193" text-anchor="middle" font-family="Arial, Helvetica, sans-serif" font-size="34" font-weight="700" fill="#FFF9F1">2</text>
</svg>
