<svg width="1536" height="1024" viewBox="0 0 1536 1024" fill="none" xmlns="http://www.w3.org/2000/svg">
  <rect width="1536" height="1024" rx="40" fill="#F6EFE4"/>
  <rect x="84" y="86" width="1368" height="852" rx="34" fill="#FFF9F1" stroke="#E2D6C3" stroke-width="4"/>
  <rect x="126" y="124" width="1284" height="74" rx="22" fill="#ECE4D8"/>
  <circle cx="173" cy="161" r="12" fill="#DE6A50"/>
  <circle cx="213" cy="161" r="12" fill="#E8B94E"/>
  <circle cx="253" cy="161" r="12" fill="#6FA375"/>
  <rect x="324" y="141" width="372" height="40" rx="14" fill="#FFFFFF"/>
  <rect x="713" y="141" width="166" height="40" rx="14" fill="#FFFFFF"/>

  <rect x="130" y="234" width="1278" height="650" rx="28" fill="#FBF7EF" stroke="#E9DECF" stroke-width="3"/>
  <rect x="176" y="286" width="886" height="546" rx="24" fill="#FFFFFF" stroke="#E3D7C7" stroke-width="4"/>
  <rect x="214" y="332" width="362" height="18" rx="9" fill="#E7DED1"/>
  <rect x="214" y="382" width="488" height="18" rx="9" fill="#E7DED1"/>
  <rect x="214" y="432" width="538" height="18" rx="9" fill="#E7DED1"/>
  <rect x="214" y="482" width="424" height="18" rx="9" fill="#E7DED1"/>
  <rect x="214" y="532" width="596" height="18" rx="9" fill="#103EB5" opacity="0.18"/>
  <rect x="214" y="582" width="516" height="18" rx="9" fill="#E7DED1"/>
  <rect x="214" y="632" width="402" height="18" rx="9" fill="#E7DED1"/>

  <rect x="1100" y="286" width="258" height="436" rx="24" fill="#FFFFFF" stroke="#DCCFBE" stroke-width="4"/>
  <rect x="1126" y="316" width="206" height="36" rx="14" fill="#F3ECDF"/>
  <rect x="1126" y="382" width="206" height="256" rx="22" fill="#FFF9F1" stroke="#E6DBCC" stroke-width="3"/>
  <rect x="1187" y="430" width="84" height="154" rx="42" fill="#103EB5"/>
  <rect x="1211" y="462" width="36" height="60" rx="18" fill="#F6F9FF"/>
  <rect x="1211" y="594" width="36" height="52" rx="18" fill="#103EB5"/>
  <rect x="1158" y="650" width="142" height="26" rx="13" fill="#103EB5"/>
  <rect x="1126" y="670" width="206" height="14" rx="7" fill="#E2D7C8"/>

  <rect x="1100" y="748" width="258" height="84" rx="24" fill="#103EB5"/>
  <path d="M1166 790L1198 746V775H1236L1268 729V775H1292" stroke="#FFF9F1" stroke-width="16" stroke-linecap="round" stroke-linejoin="round"/>

  <circle cx="1088" cy="510" r="46" fill="#DE6A50"/>
  <text x="1088" y="525" text-anchor="middle" font-family="Arial, Helvetica, sans-serif" font-size="38" font-weight="700" fill="#FFF9F1">3</text>
</svg>
